<?xml version="1.0" encoding="UTF-8" standalone="no"?>
<svg
   xmlns:dc="http://purl.org/dc/elements/1.1/"
   xmlns:cc="http://creativecommons.org/ns#"
   xmlns:rdf="http://www.w3.org/1999/02/22-rdf-syntax-ns#"
   xmlns:svg="http://www.w3.org/2000/svg"
   xmlns="http://www.w3.org/2000/svg"
   viewBox="0 0 372.61249 49.400002"
   height="49.400002"
   width="372.61249"
   xml:space="preserve"
   version="1.1"
   id="svg2"><metadata
     id="metadata8"><rdf:RDF><cc:Work
         rdf:about=""><dc:format>image/svg+xml</dc:format><dc:type
           rdf:resource="http://purl.org/dc/dcmitype/StillImage" /></cc:Work></rdf:RDF></metadata><defs
     id="defs6"><clipPath
       id="clipPath18"
       clipPathUnits="userSpaceOnUse"><path
         id="path20"
         d="m 0,0 2980.93,0 0,395 L 0,395 0,0 Z" /></clipPath></defs><g
     transform="matrix(1.25,0,0,-1.25,0,49.4)"
     id="g10"><g
       transform="scale(0.1,0.1)"
       id="g12"><g
         id="g14"><g
           clip-path="url(#clipPath18)"
           id="g16"><path
             id="path22"
             style="fill:#2e2d2d;fill-opacity:1;fill-rule:nonzero;stroke:none"
             d="m 909.57,335.523 -69.488,-68.449 c -16.332,16.071 -38.371,26.703 -69.223,26.703 -51.339,0 -87.64,-39.41 -87.64,-96.195 0,-66.113 42.785,-99.039 89.191,-99.039 45.633,0 71.82,17.898 82.192,53.406 l -85.043,0 0,72.09 180.449,0 c 1.566,-11.418 2.09,-22.309 2.09,-32.664 0,-121.0898 -89.973,-181.76172 -175.278,-181.76172 -114.082,0 -194.453,77.78902 -194.453,187.96872 0,110.453 80.371,188.246 194.453,188.246 57.555,0 101.899,-18.93 132.75,-50.305" /><path
             id="path24"
             style="fill:#2e2d2d;fill-opacity:1;fill-rule:nonzero;stroke:none"
             d="m 1075.16,197.582 c 0,-55.48 36.57,-93.848 89.46,-93.848 52.9,0 89.45,38.368 89.45,93.848 0,55.496 -36.55,93.859 -89.45,93.859 -52.89,0 -89.46,-38.363 -89.46,-93.859 z m 281.33,0 c 0,-108.3672 -79.61,-188.23044 -191.87,-188.23044 -112.27,0 -191.862,79.86324 -191.862,188.23044 0,108.379 79.592,188.246 191.862,188.246 112.26,0 191.87,-79.867 191.87,-188.246" /><path
             id="path26"
             style="fill:#2e2d2d;fill-opacity:1;fill-rule:nonzero;stroke:none"
             d="m 1589.74,290.676 0,-64.563 62.23,0 c 24.36,0 42.26,10.11 42.26,32.145 0,22.047 -17.9,32.418 -42.26,32.418 l -62.23,0 z m 204.06,-32.418 c 0,-56.004 -32.42,-96.184 -93.87,-108.891 l 98.78,-133.2693 -116.15,0 -87.38,128.8593 -5.44,0 0,-128.8593 -98.54,0 0,362.9843 161.79,0 c 92.31,0 140.81,-47.707 140.81,-120.824" /><path
             id="path28"
             style="fill:#2e2d2d;fill-opacity:1;fill-rule:nonzero;stroke:none"
             d="m 1971.97,173.215 74.41,0 -37.08,107.336 -37.33,-107.336 z m 233.6,-157.1173 -104.5,0 -24.1,69.2304 -135.61,0 -23.85,-69.2304 -102.94,0 137.42,362.9843 116.16,0 137.42,-362.9843" /><path
             id="path30"
             style="fill:#2e2d2d;fill-opacity:1;fill-rule:nonzero;stroke:none"
             d="m 2227.53,16.0977 98.5195,0 0,362.984 -98.5195,0 0,-362.984 z" /><path
             id="path32"
             style="fill:#2e2d2d;fill-opacity:1;fill-rule:nonzero;stroke:none"
             d="m 2645.97,16.0977 -273.27,0 0,362.9843 98.51,0 0,-272.242 174.76,0 0,-90.7423" /><path
             id="path34"
             style="fill:#2e2d2d;fill-opacity:1;fill-rule:nonzero;stroke:none"
             d="m 2933.48,266.812 c -23.86,13.493 -59.89,30.333 -104.75,30.333 -26.44,0 -46.66,-7.254 -46.66,-23.586 0,-20.481 37.07,-22.555 74.15,-29.825 l 11.67,-2.332 c 74.92,-14.519 113.04,-50.55 113.04,-106.293 0,-91.7887 -77.53,-125.75744 -154.78,-125.75744 -65.09,0 -124.19,15.56254 -165.68,45.12504 l 48.22,80.3714 c 28.77,-17.375 63.53,-37.3363 118.75,-37.3363 26.44,0 45.89,7.2543 45.89,25.1523 0,18.93 -22.55,22.293 -67.66,30.066 l -13.75,2.336 c -83.5,14.258 -118.23,50.305 -116.42,114.606 1.81,69.476 60.15,115.894 147.27,115.894 47.44,0 90.23,-4.933 153.23,-38.121 l -42.52,-80.633" /><path
             id="path36"
             style="fill:#d6452f;fill-opacity:1;fill-rule:nonzero;stroke:none"
             d="m 0,0 244.109,395.18 0.34,-3.356 L 225.477,63.8125 0,0" /><path
             id="path38"
             style="fill:#ef503b;fill-opacity:1;fill-rule:nonzero;stroke:none"
             d="m 488.219,0 -244.11,395.18 0,-4.711 L 277.559,63.8125 488.219,0" /></g></g></g></g></svg>